<svg width="40" height="40" viewBox="0 0 40 40" fill="none" xmlns="http://www.w3.org/2000/svg">
<rect y="36" width="4" height="4" rx="1" fill="#D9D9D9"/>
<rect y="36" width="4" height="4" rx="1" fill="#D9D9D9"/>
<rect x="24" y="16" width="4" height="4" rx="1" fill="#D9D9D9"/>
<rect x="8" y="24" width="4" height="4" rx="1" fill="#D9D9D9"/>
<rect x="20" y="32" width="4" height="4" rx="1" fill="#D9D9D9"/>
<rect x="4" y="16" width="4" height="4" rx="1" fill="#D9D9D9"/>
<rect x="16" y="32" width="4" height="4" rx="1" fill="#D9D9D9"/>
<rect x="4" y="20" width="4" height="4" rx="1" fill="#D9D9D9"/>
<rect x="12" y="16" width="4" height="4" rx="1" fill="#D9D9D9"/>
<rect x="16" y="12" width="4" height="4" rx="1" fill="#D9D9D9"/>
<rect x="20" y="8" width="4" height="4" rx="1" fill="#D9D9D9"/>
<rect x="28" y="16" width="4" height="4" rx="1" fill="#D9D9D9"/>
<rect x="24" y="20" width="4" height="4" rx="1" fill="#D9D9D9"/>
<rect x="20" y="24" width="4" height="4" rx="1" fill="#D9D9D9"/>
<rect x="8" y="32" width="4" height="4" rx="1" fill="#D9D9D9"/>
<rect x="4" y="28" width="4" height="4" rx="1" fill="#D9D9D9"/>
<rect x="16" y="28" width="4" height="4" rx="1" fill="#D9D9D9"/>
<rect x="8" y="20" width="4" height="4" rx="1" fill="#D9D9D9"/>
<rect y="32" width="4" height="4" rx="1" fill="#D9D9D9"/>
<rect x="4" y="36" width="4" height="4" rx="1" fill="#D9D9D9"/>
<rect x="12" y="28" width="4" height="4" rx="1" fill="#D9D9D9"/>
<rect x="12" y="20" width="4" height="4" rx="1" fill="#D9D9D9"/>
<rect x="16" y="16" width="4" height="4" rx="1" fill="#D9D9D9"/>
<rect x="20" y="12" width="4" height="4" rx="1" fill="#D9D9D9"/>
<rect x="24" y="8" width="4" height="4" rx="1" fill="#D9D9D9"/>
<rect x="16" y="24" width="4" height="4" rx="1" fill="#D9D9D9"/>
<rect x="20" y="20" width="4" height="4" rx="1" fill="#D9D9D9"/>
<rect x="28" y="12" width="4" height="4" rx="1" fill="#D9D9D9"/>
<rect x="28" y="8" width="4" height="4" rx="1" fill="#D9D9D9"/>
<rect x="24" y="4" width="4" height="4" rx="1" fill="#D9D9D9"/>
<rect x="28" y="4" width="4" height="4" rx="1" fill="#D9D9D9"/>
<rect x="32" y="4" width="4" height="4" rx="1" fill="#D9D9D9"/>
<rect x="28" width="4" height="4" rx="1" fill="#D9D9D9"/>
<path d="M0 1C0 0.447715 0.447715 0 1 0H3C3.55228 0 4 0.447715 4 1V3C4 3.55228 3.55228 4 3 4H1C0.447715 4 0 3.55228 0 3V1Z" fill="#EAEAEA"/>
<path d="M8 3C8 3.55228 7.55228 4 7 4H5C4.44772 4 4 4.44772 4 5V7C4 7.55228 3.55228 8 3 8H1C0.447715 8 0 7.55228 0 7V4V2V1C0 0.447715 0.447715 0 1 0H7C7.55228 0 8 0.447715 8 1V3Z" fill="#EAEAEA"/>
<path d="M16 3C16 3.55228 15.5523 4 15 4H13C12.4477 4 12 3.55228 12 3V2V1C12 0.447715 12.4477 0 13 0H15C15.5523 0 16 0.447715 16 1V3Z" fill="#EAEAEA"/>
<path d="M24 3C24 3.55228 23.5523 4 23 4H21C20.4477 4 20 3.55228 20 3V2V1C20 0.447715 20.4477 0 21 0H23C23.5523 0 24 0.447715 24 1V3Z" fill="#EAEAEA"/>
<path d="M40 19C40 19.5523 39.5523 20 39 20H37C36.4477 20 36 19.5523 36 19V18V17C36 16.4477 36.4477 16 37 16H39C39.5523 16 40 16.4477 40 17V19Z" fill="#EAEAEA"/>
<path d="M28 39C28 39.5523 27.5523 40 27 40H25C24.4477 40 24 39.5523 24 39V38V37C24 36.4477 24.4477 36 25 36H27C27.5523 36 28 36.4477 28 37V39Z" fill="#EAEAEA"/>
<path d="M20 39C20 39.5523 19.5523 40 19 40H17C16.4477 40 16 39.5523 16 39V38V37C16 36.4477 16.4477 36 17 36H19C19.5523 36 20 36.4477 20 37V39Z" fill="#EAEAEA"/>
<path d="M12 39C12 39.5523 11.5523 40 11 40H2C1.44771 40 1 39.5523 1 39V38V37C1 36.4477 1.44772 36 2 36H11C11.5523 36 12 36.4477 12 37V39Z" fill="#EAEAEA"/>
<path d="M4 15C4 15.5523 3.55228 16 3 16H1C0.447715 16 0 15.5523 0 15V14V13C0 12.4477 0.447715 12 1 12H3C3.55228 12 4 12.4477 4 13V15Z" fill="#EAEAEA"/>
<path d="M28 39C28 39.5523 27.5523 40 27 40H25C24.4477 40 24 39.5523 24 39V38V37C24 36.4477 24.4477 36 25 36H27C27.5523 36 28 36.4477 28 37V39Z" fill="#EAEAEA"/>
<path d="M4 23C4 23.5523 3.55228 24 3 24H1C0.447715 24 0 23.5523 0 23V22V21C0 20.4477 0.447715 20 1 20H3C3.55228 20 4 20.4477 4 21V23Z" fill="#EAEAEA"/>
<path d="M4 37C4 37.5523 3.55228 38 3 38H1C0.447715 38 0 37.5523 0 37V33V29C0 28.4477 0.447715 28 1 28H3C3.55228 28 4 28.4477 4 29V37Z" fill="#EAEAEA"/>
<path d="M40 27C40 27.5523 39.5523 28 39 28H37C36.4477 28 36 27.5523 36 27V26V25C36 24.4477 36.4477 24 37 24H39C39.5523 24 40 24.4477 40 25V27Z" fill="#EAEAEA"/>
<path d="M32 37C32 36.4477 32.4477 36 33 36H35C35.5523 36 36 35.5523 36 35V33C36 32.4477 36.4477 32 37 32H39C39.5523 32 40 32.4477 40 33V36V38V39C40 39.5523 39.5523 40 39 40H33C32.4477 40 32 39.5523 32 39V37Z" fill="#EAEAEA"/>
<rect x="32" width="4" height="4" rx="1" fill="#D9D9D9"/>
<rect x="36" width="4" height="4" rx="1" fill="#D9D9D9"/>
<rect x="36" y="8" width="4" height="4" rx="1" fill="#D9D9D9"/>
<rect x="36" width="4" height="4" rx="1" fill="#D9D9D9"/>
<rect x="36" y="4" width="4" height="4" rx="1" fill="#D9D9D9"/>
<rect x="32" y="8" width="4" height="4" rx="1" fill="#D9D9D9"/>
<rect x="32" y="12" width="4" height="4" rx="1" fill="#D9D9D9"/>
<rect x="24" y="12" width="4" height="4" rx="1" fill="#D9D9D9"/>
<rect x="20" y="16" width="4" height="4" rx="1" fill="#D9D9D9"/>
<rect x="16" y="20" width="4" height="4" rx="1" fill="#D9D9D9"/>
<rect x="12" y="24" width="4" height="4" rx="1" fill="#D9D9D9"/>
<rect x="8" y="28" width="4" height="4" rx="1" fill="#D9D9D9"/>
<rect x="4" y="32" width="4" height="4" rx="1" fill="#D9D9D9"/>
<path d="M4 17C4 16.4477 4.44772 16 5 16H7C7.55228 16 8 16.4477 8 17V19C8 19.5523 8.44771 20 9 20H11C11.5523 20 12 20.4477 12 21V17C12 16.4477 12.4477 16 13 16H15C15.5523 16 16 15.5523 16 15V13C16 12.4477 16.4477 12 17 12H19C19.5523 12 20 11.5523 20 11V9C20 8.44771 20.4477 8 21 8H23C23.5523 8 24 7.55228 24 7V5C24 4.44772 24.4477 4 25 4H27C27.5523 4 28 3.55228 28 3V1C28 0.447715 28.4477 0 29 0H39C39.5523 0 40 0.447715 40 1V11C40 11.5523 39.5523 12 39 12H37C36.4477 12 36 12.4477 36 13V15C36 15.5523 35.5523 16 35 16H33C32.4477 16 32 16.4477 32 17V19C32 19.5523 31.5523 20 31 20H29C28.4477 20 28 20.4477 28 21V23C28 23.5523 27.5523 24 27 24H25C24.4477 24 24 24.4477 24 25V27C24 27.5523 23.5523 28 23 28H19C19.5523 28 20 28.4477 20 29V31C20 31.5523 20.4477 32 21 32H23C23.5523 32 24 32.4477 24 33V35C24 35.5523 23.5523 36 23 36H17C16.4477 36 16 35.5523 16 35V33C16 32.4477 15.5523 32 15 32H13C12.4477 32 12 32.4477 12 33V35C12 35.5523 11.5523 36 11 36H9C8.44771 36 8 36.4477 8 37V39C8 39.5523 7.55228 40 7 40H1C0.447715 40 0 39.5523 0 39V33C0 32.4477 0.447715 32 1 32H3C3.55228 32 4 31.5523 4 31V29C4 28.4477 4.44772 28 5 28H7C7.55228 28 8 27.5523 8 27V25C8 24.4477 7.55228 24 7 24H5C4.44772 24 4 23.5523 4 23V17Z" fill="#664139"/>
<path d="M28 1C28 0.447715 28.4477 0 29 0H39C39.5523 0 40 0.447715 40 1V11C40 11.5523 39.5523 12 39 12H37C36.4477 12 36 12.4477 36 13V15C36 15.5523 35.5523 16 35 16H33C32.4477 16 32 16.4477 32 17V19C32 19.5523 31.5523 20 31 20H29C28.4477 20 28 20.4477 28 21V23C28 23.5523 27.5523 24 27 24H25C24.4477 24 24 24.4477 24 25V27C24 27.5523 23.5523 28 23 28H17C16.4477 28 16 27.5523 16 27V25C16 24.4477 15.5523 24 15 24H13C12.4477 24 12 23.5523 12 23V17C12 16.4477 12.4477 16 13 16H15C15.5523 16 16 15.5523 16 15V13C16 12.4477 16.4477 12 17 12H19C19.5523 12 20 11.5523 20 11V9C20 8.44771 20.4477 8 21 8H23C23.5523 8 24 7.55228 24 7V5C24 4.44772 24.4477 4 25 4H27C27.5523 4 28 3.55228 28 3V1Z" fill="#A5B0D6"/>
<path d="M36 4V1C36 0.447715 36.4477 0 37 0H39C39.5523 0 40 0.447715 40 1V11C40 11.5523 39.5523 12 39 12H37C36.4477 12 36 12.4477 36 13V15C36 15.5523 35.5523 16 35 16H33C32.4477 16 32 16.4477 32 17V19C32 19.5523 31.5523 20 31 20H29C28.4477 20 28 20.4477 28 21V23C28 23.5523 27.5523 24 27 24H25C24.4477 24 24 24.4477 24 25V27C24 27.5523 23.5523 28 23 28H17C16.4477 28 16 27.5523 16 27V25C16 24.4477 16.4477 24 17 24H19C19.5523 24 20 23.5523 20 23V21C20 20.4477 20.4477 20 21 20H23C23.5523 20 24 19.5523 24 19V16C24 15.4477 24.4477 15 25 15H27C27.5523 15 28 14.5523 28 14V12C28 11.4477 28.4477 11 29 11H31C31.5523 11 32 10.5523 32 10V8C32 7.44772 32.4477 7 33 7H35C35.5523 7 36 6.55228 36 6V4Z" fill="#C7D1F3"/>
<rect y="36" width="8" height="4" rx="1" fill="#915D51"/>
<path d="M16 33C16 32.4477 15.5523 32 15 32H13C12.4477 32 12 31.5523 12 31V29C12 28.4477 12.4477 28 13 28H16H19C19.5523 28 20 28.4477 20 29V31C20 31.5523 20.4477 32 21 32H23C23.5523 32 24 32.4477 24 33V35C24 35.5523 23.5523 36 23 36H17C16.4477 36 16 35.5523 16 35V33Z" fill="#915D51"/>
<rect x="8" y="32" width="4" height="4" rx="1" fill="#915D51"/>
<rect x="4" y="28" width="4" height="4" rx="1" fill="#523832"/>
<rect x="4" y="28" width="4" height="4" rx="1" fill="#523832"/>
<rect x="4" y="28" width="4" height="4" rx="1" fill="#452B25"/>
<rect x="16" y="12" width="4" height="4" rx="1" fill="#8790AE"/>
<rect x="16" y="12" width="4" height="4" rx="1" fill="#707B9F"/>
<rect x="28" width="4" height="4" rx="1" fill="#8790AE"/>
<rect x="28" width="4" height="4" rx="1" fill="#707B9F"/>
<rect x="24" y="4" width="4" height="4" rx="1" fill="#8790AE"/>
<rect x="24" y="4" width="4" height="4" rx="1" fill="#707B9F"/>
<rect x="12" y="16" width="4" height="4" rx="1" fill="#8790AE"/>
<rect x="12" y="16" width="4" height="4" rx="1" fill="#707B9F"/>
<rect x="20" y="8" width="4" height="4" rx="1" fill="#8790AE"/>
<rect x="20" y="8" width="4" height="4" rx="1" fill="#707B9F"/>
<rect y="32" width="4" height="4" rx="1" fill="#523832"/>
<rect y="32" width="4" height="4" rx="1" fill="#523832"/>
<rect y="32" width="4" height="4" rx="1" fill="#452B25"/>
<path d="M4 17C4 16.4477 4.44772 16 5 16H7C7.55228 16 8 16.4477 8 17V19C8 19.5523 8.44772 20 9 20H11C11.5523 20 12 20.4477 12 21V23C12 23.5523 11.5523 24 11 24H8H5C4.44772 24 4 23.5523 4 23V17Z" fill="#523832"/>
<path d="M4 17C4 16.4477 4.44772 16 5 16H7C7.55228 16 8 16.4477 8 17V19C8 19.5523 8.44772 20 9 20H11C11.5523 20 12 20.4477 12 21V23C12 23.5523 11.5523 24 11 24H8H5C4.44772 24 4 23.5523 4 23V17Z" fill="#523832"/>
<path d="M4 17C4 16.4477 4.44772 16 5 16H7C7.55228 16 8 16.4477 8 17V19C8 19.5523 8.44772 20 9 20H11C11.5523 20 12 20.4477 12 21V23C12 23.5523 11.5523 24 11 24H8H5C4.44772 24 4 23.5523 4 23V17Z" fill="#523832"/>
<path d="M4 17C4 16.4477 4.44772 16 5 16H7C7.55228 16 8 16.4477 8 17V19C8 19.5523 8.44772 20 9 20H11C11.5523 20 12 20.4477 12 21V23C12 23.5523 11.5523 24 11 24H8H5C4.44772 24 4 23.5523 4 23V17Z" fill="#523832"/>
<path d="M4 17C4 16.4477 4.44772 16 5 16H7C7.55228 16 8 16.4477 8 17V19C8 19.5523 8.44772 20 9 20H11C11.5523 20 12 20.4477 12 21V23C12 23.5523 11.5523 24 11 24H8H5C4.44772 24 4 23.5523 4 23V17Z" fill="#523832"/>
<path d="M4 17C4 16.4477 4.44772 16 5 16H7C7.55228 16 8 16.4477 8 17V19C8 19.5523 8.44772 20 9 20H11C11.5523 20 12 20.4477 12 21V23C12 23.5523 11.5523 24 11 24H8H5C4.44772 24 4 23.5523 4 23V17Z" fill="#452B25"/>
</svg>
