<svg xmlns="http://www.w3.org/2000/svg" fill="none" viewBox="0 0 400 400" height="400" width="400"><g id="work-in-progress--work-work-in-progress"><g id="object 1"><path id="vector" fill="#000000" d="M13.506 236.566c-1.668 -1.864 -2.932 -8.2 -3.168 -10.774 -0.958 -10.464 13.09 -15.898 23.282 -18.46 2.982 -0.748 3.142 -0.612 3.288 -1.45 0.188 -1.082 0 -0.05 9.04 -38.17 13.436 -56.648 12.884 -54.304 16.63 -56.6 5.618 -3.44 18.372 -2.664 20.438 4.454 4.836 16.662 22.4 92.106 22.4 92.236 0.244 1.682 4.2 0.816 13.72 5.954 12.18 6.572 10.88 12.4 10.232 18.144 -0.354 3.15 -0.958 6.35 -3.31 8.422 -19.392 17.098 -94.168 16.788 -112.552 -3.756Zm106.66 -0.674c24.228 -13.8 -14.42 -26.678 -14.04 -25 2.458 10.848 4.296 14.2 0.364 17.15 -18.104 13.63 -64.584 10.272 -72.976 -2.294a6.562 6.562 0 0 1 -0.186 -3.86c1.31 -5.694 1.856 -8.9 2.822 -12.624 0.13 -0.502 -0.356 -0.48 -0.852 -0.338a61.274 61.274 0 0 0 -15.54 5.774c-5.516 3.18 -9.77 7.972 -6.244 13.334 11.412 17.354 78.57 23.846 106.652 7.858Zm-18.548 -30.8c1.14 -0.308 1.128 -0.318 0.838 -1.468l-4.752 -19.17c-0.252 -1.08 -9.922 1.826 -16.892 1.784 -19.272 -0.112 -21.052 -0.868 -34.696 -4.876 -1.66 -0.488 -1.074 -0.314 -6.35 21.082 -0.172 0.7 -0.176 0.718 0.4 0.95 22.154 8.848 39.676 7.606 61.452 1.706v-0.008Zm-10.738 -49.88c-0.31 -0.866 -0.066 -0.236 -3.86 -15.758 -1.31 -5.35 -0.498 -2.05 -9.416 -1.05 -9.186 1.028 -12.584 0.076 -20.928 -2.104 -1.122 -0.294 -1.256 0.83 -1.562 2.108 -1.546 6.46 -3.552 15.034 -3.642 15.246 -0.224 0.526 -0.16 0.57 0.252 0.782 11.698 5.984 40.076 3.322 39.156 0.776ZM63.474 116.2c6.612 3.116 19.054 0.144 16.362 -2.426 -6.026 -5.754 -23.466 -0.92 -16.362 2.426Z" stroke-width="2"></path></g><g id="mechanic 2"><path id="Subtract" fill="#000000" fill-rule="evenodd" d="M178.84 102.252a77.16 77.16 0 0 0 -0.472 5.83l2.622 -0.01 0.15 -2.088c0.542 -7.564 0.55 -7.676 -0.5 -8.102a17.272 17.272 0 0 1 -2.864 -1.9v0.004a11.324 11.324 0 0 1 -1.28 -1.016c-1.694 -1.5 -2.096 -1.86 -13.014 2.9 -1.42 0.62 -1.422 0.62 -1.564 0.444a1.442 1.442 0 0 0 -0.036 -0.044 53.428 53.428 0 0 1 -8.254 -13.428c-0.306 -0.67 0.904 -1.718 2.88 -3.43 0.7 -0.604 1.494 -1.292 2.352 -2.076 0.074 -0.066 0.32 -0.31 0.676 -0.664 0.712 -0.706 1.87 -1.856 3.008 -2.936 0.784 -0.738 1.214 -1.154 0.918 -2.338a21.616 21.616 0 0 1 -0.558 -3.342c-0.14 -1.396 -0.2 -1.98 -1.39 -2.41 -0.982 -0.356 -1.356 -0.5 -1.748 -0.654 -0.88 -0.342 -1.854 -0.72 -10.016 -3.588 -0.232 -0.082 -0.156 -0.696 -0.102 -1.096 0.5 -4.984 1.464 -9.91 2.88 -14.714 0.18 -0.636 0.284 -1.09 0.358 -1.41 0.15 -0.648 0.174 -0.756 0.44 -0.756 0.15 0 0.38 0.026 1.214 0.118l0.754 0.082 1.93 0.214c9.732 1.074 9.966 1.1 10.436 0.24a33.426 33.426 0 0 1 3.312 -4.904c1.066 -1.296 1.02 -1.404 0.132 -3.504l-0.404 -0.968c-1.712 -4.16 -2.868 -6.68 -3.572 -8.216 -0.784 -1.71 -1.01 -2.2 -0.816 -2.368a46.228 46.228 0 0 1 13.21 -8.87l0.016 -0.008a0.454 0.454 0 0 1 0.132 -0.05c0.186 -0.026 0.412 0.22 1.632 1.552 0.64 0.7 1.56 1.704 2.892 3.126l0.716 0.764c4.912 5.238 5.25 5.6 6.424 5.186 1.362 -0.48 2.614 -0.666 3.708 -0.83 2.002 -0.3 3.48 -0.52 4.15 -2.308 4.612 -12.308 4.736 -12.308 4.994 -12.308l0.006 0c5.464 0.226 10.858 1.326 15.974 3.26a0.796 0.796 0 0 1 0.568 0.92l-0.072 0.56c-0.352 2.774 -1.486 11.696 -1.268 13.138 0.112 0.744 0.47 0.966 2.168 2.024l0.042 0.026c1.024 0.59 2.014 1.234 2.968 1.93l0.064 0.048c0.794 0.59 1.862 1.384 2.736 0.994a75.82 75.82 0 0 1 4.384 -1.846c1.144 -0.454 2.77 -1.098 5.546 -2.226 1.274 -0.516 2.062 -0.872 2.564 -1.096 0.62 -0.28 0.802 -0.36 0.92 -0.308a0.472 0.472 0 0 1 0.142 0.134l0.018 0.022a64.332 64.332 0 0 1 9.2 14.732c0.134 0.26 0.054 0.326 -1.842 1.836 -1.264 1.008 -3.336 2.66 -6.692 5.442l-0.498 0.414c-1.698 1.404 -2.3 1.9 -2.388 2.48 -0.05 0.314 0.056 0.656 0.22 1.18 0.27 0.864 0.694 2.226 0.852 4.804 0.052 0.85 0.122 0.918 0.406 1.194l0.038 0.036c0.768 0.748 1.044 1.016 10.054 4.016 0.208 -0.78 0.434 -1.612 0.666 -2.458a154.586 154.586 0 0 0 -0.564 -0.182l-0.496 -0.162a70.184 70.184 0 0 0 -7.188 -2.246c-0.696 -0.16 -0.702 -0.216 -0.786 -1.08 -0.066 -0.66 -0.176 -1.794 -0.674 -3.8 -0.204 -0.822 -0.202 -0.84 0.15 -1.096a210.324 210.324 0 0 0 8.71 -6.754c1.634 -1.332 2.908 -2.61 2 -4.716a54.774 54.774 0 0 0 -9.492 -15.132c-0.714 -0.764 -1.152 -1.148 -2.286 -0.83a104.548 104.548 0 0 0 -13.55 5.108 0.414 0.414 0 0 1 -0.236 -0.098 94.504 94.504 0 0 0 -2.902 -1.912c-1.712 -1.092 -1.848 -1.18 -1.734 -2.088 0.246 -1.974 0.94 -8.386 0.94 -8.924 0.008 -0.486 0.022 -0.924 0.034 -1.326 0.072 -2.342 0.104 -3.366 -1.14 -4.654a67.262 67.262 0 0 0 -9.06 -2.57l-0.05 -0.01c-9.434 -1.752 -9.606 -1.784 -11.066 1.61 -1.05 2.45 -3.822 9.064 -4.65 11.24 -0.166 0.434 -0.216 0.44 -0.996 0.534 -0.754 0.088 -2.194 0.26 -5.088 0.98 -0.4 0.1 -0.66 -0.23 -1.488 -1.286 -0.698 -0.886 -1.794 -2.282 -3.712 -4.36l-0.58 -0.628c-3.424 -3.71 -4.456 -4.826 -5.47 -4.526 -6.474 1.9 -16.152 9.578 -15.588 11.6a66.224 66.224 0 0 0 5.27 12.534c0.146 0.3 0.024 0.7 -0.364 1.2 -1.598 2.064 -2.274 3.198 -2.64 3.81 -0.336 0.564 -0.408 0.686 -0.696 0.686 -0.256 0 -0.524 -0.036 -1.722 -0.196 -0.612 -0.082 -1.464 -0.198 -2.68 -0.356a0.056 0.056 0 0 0 -0.018 -0.02c-0.06 -0.06 -0.166 -0.068 -1.33 -0.17 -0.96 -0.084 -2.644 -0.23 -5.62 -0.52 -1.096 -0.11 -2.566 -0.014 -3.014 1a61.246 61.246 0 0 0 -3.844 17.084 19.284 19.284 0 0 1 -0.044 0.666c-0.104 1.336 -0.2 2.552 1.444 3.252 6.77 2.882 9.632 3.586 10.85 3.886 0.73 0.18 0.872 0.212 0.91 0.484 0.168 1.192 0.32 2.1 0.436 2.778 0.194 1.138 0.28 1.632 0.132 1.758a123.32 123.32 0 0 0 -9.47 8.57 1.38 1.38 0 0 0 -0.466 1.2c0.952 4.4 4.958 10.552 7.172 13.494 0.376 0.5 0.68 0.944 0.94 1.33 0.552 0.81 0.926 1.36 1.446 1.634 1.104 0.58 2.864 -0.084 8.36 -2.16 1.358 -0.51 2.94 -1.108 4.798 -1.794 0.62 -0.228 0.726 -0.142 1.788 0.7 0.598 0.472 1.496 1.184 2.954 2.212 0.556 0.39 0.466 1.112 0.25 2.86l0 0.006Zm43.434 -39.7a21.7 21.7 0 0 0 -10.76 -16.506 21.716 21.716 0 0 0 -8.114 -2.726 21.844 21.844 0 1 0 7.004 41.146 79.34 79.34 0 0 1 -1.124 -2.116c-3.194 1.67 -6.676 2.404 -9.814 2.024 -12.1 -1.46 -19.596 -11.426 -18.144 -22.054a19.436 19.436 0 0 1 38.652 1.752c0.768 -0.544 1.538 -1.054 2.3 -1.52Z" clip-rule="evenodd" stroke-width="2"></path></g><g id="computer"><path id="Subtract_2" fill="#000000" fill-rule="evenodd" d="M192.3 110.378c-18.24 -0.272 -29.88 0.13 -35.498 0.324 -2.39 0.082 -3.692 0.126 -3.946 0.066a30 30 0 0 1 -1.022 0.03c-0.824 0.014 -1.424 0.024 -1.906 0.268 -1.304 0.66 -1.746 3.028 -3.38 11.808 -0.33 1.764 -0.706 3.786 -1.148 6.104 -5.716 29.984 -13.4 95.47 -10.218 130.506 0.076 0.844 0.188 1.39 0.268 1.782 0.148 0.722 0.186 0.91 -0.312 1.436a535.648 535.648 0 0 0 -41.104 47.706c-12.136 15.97 -12.104 16.408 -11.514 24.482 0.088 1.2 0.188 2.568 0.262 4.182a3.38 3.38 0 0 0 2.898 3.116c0.186 0.006 2.408 0.478 6.41 1.33 28.832 6.13 150.016 31.894 267.47 44.24l0.016 0.002c1.892 0.2 2.814 0.296 7.584 -47.802 0.678 -6.846 2.494 -37.122 1.726 -42.42 -0.302 -2.086 -0.276 -2.152 0.114 -2.486 2.314 -1.984 18.616 -118.932 18 -153.6 -0.03 -1.774 0.116 -3.684 0.258 -5.53 0.37 -4.832 0.706 -9.22 -2.258 -9.544a549.814 549.814 0 0 1 -10.608 -1.254c-6.008 -0.756 -14.184 -1.784 -41.81 -4.754 0.014 0.862 0.008 1.73 -0.02 2.592 3.518 0.376 7.106 0.766 10.762 1.17 8.08 0.89 14.578 1.596 19.806 2.16 19.172 2.08 21.248 2.304 21.482 3.084 0.03 0.094 0.03 0.198 0.032 0.312l0 0.014c0.556 40.9 -13.044 140.098 -17.106 162.37 -0.392 2.158 -0.486 2.146 -5.278 1.558 -0.646 -0.08 -1.38 -0.17 -2.212 -0.266 -0.048 -0.006 -137.608 -18.046 -220.224 -32.126 -7.824 -1.336 0.33 -99.9 10.62 -147.87l0.014 -0.076c0.036 -0.17 0.062 -0.3 0.134 -0.394 0.214 -0.292 0.834 -0.284 3.33 -0.254 1.05 0.012 2.43 0.028 4.25 0.028 11.234 0.014 22.326 0.11 33.772 0.36l0.048 -0.36c0.092 -0.766 0.194 -1.532 0.31 -2.294Zm-0.93 11.592c-10.286 -0.384 -19.51 -0.494 -27.154 -0.246 -0.576 0.02 -1.08 0.012 -1.522 0.006 -1.674 -0.02 -2.434 -0.032 -2.694 1.374 -7.8 42.196 -15.536 127.778 -11.906 128.842 2.264 0.674 54.744 10.098 93.824 15.016 44.926 5.658 77.662 8.836 96.392 10.654l0.002 0c8.552 0.83 14.184 1.376 16.722 1.746l0.014 0.002c1.918 0.28 2.29 0.336 6.55 -31.572 6.748 -50.564 11.058 -102.9 11.088 -106.9l0 -0.064c0.002 -0.21 0.004 -0.38 -0.054 -0.526 -0.248 -0.61 -1.57 -0.786 -8.462 -1.7 -1.494 -0.198 -3.248 -0.43 -5.31 -0.71a1981.088 1981.088 0 0 0 -27.596 -3.516c-0.42 2.29 -0.836 4.106 -1.072 5.14 -0.088 0.384 -0.15 0.66 -0.18 0.812 -0.472 2.456 -0.81 2.466 -12.512 2.794 -1.956 0.056 -4.23 0.12 -6.874 0.206 -0.578 0.02 -0.658 0.206 -1.042 1.112 -0.414 0.972 -1.18 2.774 -3.294 6.088 -0.296 0.464 -0.26 0.512 0.416 1.442 0.652 0.896 1.9 2.61 4.018 6.298l1.458 2.53c3.512 6.084 3.522 6.098 2.668 7.17 -4.766 5.98 -20.446 18.478 -23.558 15.986 -1.504 -1.2 -6.976 -6.454 -8.09 -7.552a39.844 39.844 0 0 1 -2.856 -3.104c-0.788 -0.946 -0.954 -1.144 -1.58 -0.924 -2.634 0.94 -4.2 1.276 -5.16 1.48 -1.266 0.272 -1.47 0.316 -1.67 1.226a83.192 83.192 0 0 1 -5 15.308c-1.042 1.866 -5.47 1.606 -7.632 1.478l-0.066 -0.004c-2.844 -0.166 -18.062 -1.66 -19.156 -4.25 -0.494 -1.172 -0.51 -1.364 -0.584 -2.338 -0.036 -0.456 -0.084 -1.082 -0.202 -2.062 -0.55 -4.59 -0.558 -7.62 -0.564 -9.64 -0.006 -2.384 -0.01 -3.358 -0.896 -3.828 -1.996 -1.056 -3.262 -1.822 -4.122 -2.34 -1.6 -0.968 -1.792 -1.084 -2.644 -0.638 -11.416 5.99 -14.28 7.906 -16.15 7.196 -1.036 -0.392 -1.764 -1.592 -3.472 -3.352 -3.846 -3.964 -9.54 -10.934 -11.382 -16.14a1.64 1.64 0 0 1 0.378 -1.436c0.62 -0.88 1.014 -1.45 1.43 -2.006 1.16 -1.544 2.492 -2.96 9.356 -10.552 0.25 -0.284 0.246 -0.3 -0.18 -1.68a125.954 125.954 0 0 1 -1.24 -4.258c-0.138 -0.502 -0.222 -0.51 -1.018 -0.576 -0.558 -0.048 -1.472 -0.124 -3.002 -0.424a129.676 129.676 0 0 1 -11.976 -2.866 2.786 2.786 0 0 1 -2.2 -3c-0.16 -1.898 -0.242 -3.8 -0.244 -5.7Zm175.056 174.41c-0.006 -0.414 -0.008 -0.61 -0.106 -0.7 -0.09 -0.082 -0.26 -0.078 -0.582 -0.068 -0.314 0.008 -0.774 0.022 -1.448 -0.038 -52.742 -4.65 -169.914 -22.576 -218.174 -30.862a201.02 201.02 0 0 1 -4.22 -0.774c-3.462 -0.664 -3.902 -0.748 -4.73 0.276 -0.85 1.05 -3.018 3.46 -6.068 6.852 -10.64 11.822 -32.018 35.584 -45.732 55.334 -0.536 0.772 116.47 26.4 266.75 45.748 2.254 0.29 3.908 0.538 5.122 0.72 2.32 0.348 3.04 0.456 3.282 0.164 0.11 -0.13 0.122 -0.342 0.142 -0.65l0 -0.012c0.072 -1.18 2.712 -33.87 2.716 -33.914 1.29 -13.16 1.928 -23.828 2.414 -31.974 0.228 -3.822 0.424 -7.09 0.638 -9.8l-0.004 -0.302Zm-39.906 81.936c0.986 0.082 1.98 -0.04 2.916 -0.358 1.642 -0.6 0.096 -2.814 -1.412 -2.988a9.344 9.344 0 0 0 -5.068 -0.096c-2.028 0.966 -0.368 3.726 3.564 3.442Zm12.74 -2.88a2.754 2.754 0 0 0 -2.068 1.758 2.644 2.644 0 0 0 4.4 2.6 2.536 2.536 0 0 0 0.58 -3.114 2.526 2.526 0 0 0 -2.912 -1.244Zm-167.958 -144.178a2.322 2.322 0 0 0 1.412 1.8l158.528 19.652c4.242 0.466 4.286 0.414 5.688 -11.682l0.176 -1.514c0.764 -6.57 0.86 -7.402 1.368 -15.024a2.2 2.2 0 0 0 -1.474 -1.838c-1.232 -0.166 -162.974 -19.284 -163.474 -16.538a133.612 133.612 0 0 0 -2.224 25.144Z" clip-rule="evenodd" stroke-width="2"></path><path id="vector_2" fill="#000000" d="M122.52 303.942c-0.7 -1.76 -0.694 -1.18 7.116 -11.132 10.712 -13.654 8.746 -11.022 12.944 -16.082 3.532 -4.258 4.06 -5.568 6.048 -5.148l193.572 28.47c6.322 0.874 6.292 -0.838 4.294 14.272 -3.614 27.342 -3.554 27.084 -5.462 26.97 -19.312 -1.16 -217.312 -34.322 -218.514 -37.35Zm108.876 -18.33c0.648 0.79 0.37 1.158 -1.366 7.366 -0.276 0.984 -0.23 0.726 4.642 1.472 18.61 2.852 18.468 3.222 18.69 2.22a31.396 31.396 0 0 1 2.294 -7.278c0.62 -0.6 -52.304 -7.774 -65.744 -10.1 -0.74 -0.128 -0.488 0.302 -1.176 2.056 -2.276 5.8 -2.5 5.43 -1.384 5.6 2.352 0.364 13.424 2.136 18.33 2.888 1.128 0.174 0.682 0.372 3.292 -6.012 0.232 -0.564 0.654 -1.252 1.212 -1.012 0.648 0.278 0.428 1.088 0.2 1.758 -1.932 5.688 -2.18 5.576 -1.412 5.812 0.102 0.032 9.412 1.376 18.34 2.88 0.662 0.112 0.65 -0.15 0.932 -1.03 1.654 -5.14 1.882 -6.802 3.154 -6.62h-0.004Zm88.494 39.128c0.05 -1.314 0.152 -0.688 -12 -2.8 -7.024 -1.22 -6.98 -1.566 -7.118 -0.87a430.176 430.176 0 0 1 -1.978 9.448c-0.44 1.894 -2.4 1.558 -1.97 -0.674 1.444 -7.348 1.426 -6.714 1.77 -9.164 0.12 -0.856 -0.428 -0.292 -20.35 -3.954 -0.634 -0.116 -0.464 0.2 -1.034 2.73a73.334 73.334 0 0 1 -2 8.43 0.992 0.992 0 0 1 -1.154 0.592 1 1 0 0 1 -0.768 -1.044c0 -0.516 -0.066 -0.022 2.188 -10.3 0.312 -1.42 1.72 -0.214 -23 -4.862 -0.9 -0.17 -0.282 0.472 -3.4 12.442 -0.124 0.474 -2.16 0.332 28.142 4.8 44.4 6.54 41.058 6.412 40.922 5.37 -0.176 -1.308 0.206 -1.406 1.75 -10.144Zm2.632 -16.462c0.852 0.044 0.536 -0.248 0.95 -2.13 1.4 -6.418 1.584 -6.684 1.278 -6.746 -0.902 -0.182 -52.552 -7.8 -63.556 -9.504 -6.834 -1.06 -4.4 -0.87 -4.514 0.498 -0.4 5.018 -2.098 7.238 -0.874 7.258 0.044 0 0 0.052 22.45 3.564 1.56 0.244 0.4 -0.09 2.696 -6.776 0.2 -0.58 1.302 -0.664 1.2 0.65 -0.068 0.938 -0.508 2.646 -1.082 5.642 -0.28 1.452 -0.186 0.884 17.146 3.684 3.678 0.6 3.638 0.846 3.864 -0.258 0.294 -2.322 0.83 -4.608 1.6 -6.82 0.4 -0.818 1.696 -0.39 1.464 0.83 -0.114 0.6 -1.2 6.452 -1.242 6.69 -0.084 0.702 -0.07 0.466 18.62 3.418Zm3.266 2.188c-1.15 -0.068 -1.15 -0.214 -1.288 0.456 -0.084 0.412 0.026 0.014 -2.014 11.13 -0.154 0.842 -0.15 0.756 15.474 3.274 4.88 0.786 4.712 1 4.93 -0.244 1.634 -9.4 1.948 -12.74 3.51 -22.014 0.168 -1 -0.116 -0.222 -19.56 -3.438 -0.666 -0.11 -0.456 0 -0.914 2.71 -0.6 3.582 -0.512 2.702 -0.968 5.854 -0.098 0.674 -0.088 0.442 11.254 2.25 6.4 1.02 5.716 0.81 6.344 1.344 0.414 0.35 -0.478 1.19 -1.2 1.108 -2.87 -0.322 -4.768 -0.802 -15.568 -2.43Zm-80.08 14.19c1.038 0.04 1 -0.054 1.184 -0.848 1.462 -6.44 0.864 -3.874 2.458 -10.574 0.462 -1.94 0.466 -1.332 -7.986 -2.8 -7.442 -1.302 -0.714 -0.2 -15.146 -2.658 -0.812 -0.138 -0.612 -0.072 -1.246 1.974 -2.844 9.184 -2.894 9.238 -3.128 10.304 -0.2 0.892 -1.398 0.418 23.864 4.602Zm-111.79 -33.112c-0.906 0.51 -0.22 -0.2 -3.316 3.662a72.76 72.76 0 0 0 -6.066 7.8c0.472 0.114 20.07 3.864 20.116 3.872 5.266 1.028 5.42 1.174 5.67 0.556 0.02 -0.044 0.042 0 3.244 -5.884 3.66 -6.734 3.634 -5.8 1.904 -6.146 -0.644 -0.136 -0.014 0.032 -21.552 -3.86Zm25.168 4.482c-0.47 -0.132 -6.776 11.8 -6.8 11.844 -0.234 0.554 -0.146 0.374 13.7 2.862 7.902 1.42 7.644 1.742 7.954 1 0.66 -1.566 4.276 -10.082 4.974 -11.626 0.36 -0.78 1.16 -0.432 -19.828 -4.08Zm37.132 20.226c0.522 0.098 0.31 0.096 4.912 -12.044 0.322 -0.852 0 -0.91 -0.862 -1.046 -8.456 -1.342 -13.116 -2.474 -18.844 -3.156 -0.666 -0.078 -0.4 -0.16 -5.628 12.092 -0.42 0.986 -0.106 0.278 20.422 4.154Zm22.718 3.944c0.826 0.146 0.6 0.106 4.42 -12.348 0.294 -0.958 0.584 -0.422 -19.04 -4 -0.906 -0.166 -0.636 -0.286 -2.21 3.952 -3.446 9.274 -3.6 8.864 -2.64 9.052 0.044 0.012 0.022 -0.102 19.47 3.348v-0.004Zm35.4 -18.148c-1.938 8.342 -2.2 8.32 -1.5 8.444 21.83 3.838 19.236 3.318 21.844 3.784 1.39 0.25 1.386 0.276 1.704 -1.13l2.158 -9.4c0.2 -0.882 1.02 -0.382 -17.138 -3.256 -7.674 -1.224 -6.296 -1.762 -7.066 1.558h-0.002ZM249.692 310c0.692 0.07 0.412 0.116 2.76 -9.74 0.418 -1.754 2.788 -0.768 -22.476 -4.678 -0.664 -0.102 -0.634 -0.182 -0.86 0.546l-2.764 8.914c-0.444 1.442 -1.736 0.448 23.34 4.958Zm31.634 -6.418c-1.074 -0.056 -0.75 -0.23 -2.378 7.566 -0.782 3.736 -0.898 3.67 -0.432 3.8 0.046 0.014 14.578 2.642 18.238 3.258 2.214 0.372 2.366 0.382 2.472 -0.156 0.928 -4.68 2 -9.69 2.2 -10.738 0.19 -0.944 0.1 -0.49 -12.812 -2.6 -4.614 -0.768 -2.828 -0.494 -7.288 -1.13Zm41.448 20.848c-0.948 -0.036 -0.75 -0.222 -1.57 4.4a36.02 36.02 0 0 1 -1.19 6.138c-0.326 0.82 -1.472 0.566 4.816 1.628 17.08 2.884 15.8 3.132 15.88 2.534 1.6 -11.278 2.038 -11.112 0.896 -11.334 -10.142 -1.956 -15.622 -2.856 -18.832 -3.366Zm-18.32 -17.298c-1.238 -0.052 -0.954 -0.354 -2.086 5.56 -1.22 6.372 -1.464 6.244 -0.39 6.422 0.856 0.142 16.626 2.928 17.718 3.092 0.948 0.142 0.636 0.084 1.544 -4.704 1.43 -7.556 1.712 -7.512 0.914 -7.64 -0.466 -0.076 -12.004 -1.828 -17.7 -2.73Zm-156.688 -24.6c-6.052 -1.086 -6.06 -1.348 -6.54 -0.678 -0.032 0.044 -0.048 -0.026 -4.468 5.612 -1.97 2.512 -2.232 2.72 -1.714 2.8 10.168 1.484 7.9 1.256 21.974 3.732 0.856 0.15 0.514 0.238 5.302 -8.44 0.502 -0.908 0.036 -0.402 -14.554 -3.022v-0.004Zm60.246 9.554c-0.31 0.248 -0.2 -0.03 -0.6 1.056 -3.518 9.666 -3.522 8.97 -2.68 9.102 17.55 2.742 19.15 3.854 19.502 2.75 3.474 -10.894 3.4 -9.816 1.952 -10.05 -12.924 -2.104 -15.024 -2.166 -18.174 -2.854v-0.004Zm-6.674 9.576c0.958 0.076 0.6 0.346 2.184 -3.8 2.174 -5.73 2.618 -6.076 1.62 -6.222 -9.62 -1.414 -11.09 -1.656 -18.446 -2.876 -1.12 -0.184 -0.766 -0.456 -3.134 5.156 -1.948 4.62 -1.89 4.242 -1.136 4.376 15.374 2.732 10.29 1.79 18.912 3.37v-0.004Zm-35.964 -16.242c-1.066 -0.044 -0.764 -0.368 -2.618 3.13 -3.418 6.446 -3.244 5.8 -2.494 5.95 1.944 0.38 12.654 2.176 18.926 3.302 0.892 0.16 0.6 0.322 3.58 -6.538 1.256 -2.892 1.32 -2.888 0.8 -2.964 -2.694 -0.392 -14.72 -2.192 -18.194 -2.88Zm-2.258 -2.244c0.646 0.11 0.4 0.16 3.76 -5.982 0.188 -0.35 0.6 -0.736 0.548 -1.038 -0.108 -0.572 -13.956 -2.102 -18.716 -3.076 -0.932 -0.19 -0.6 -0.224 -5.458 6.156 -1.16 1.522 -2.12 0.164 19.866 3.94Zm6.68 -6.864c-0.584 -0.188 -0.454 0.028 -4.116 6.814 -0.266 0.494 0.266 0.512 1.64 0.71 17.654 2.548 17.212 3.278 17.746 2.144L188 279.684c0.4 -0.866 0.142 -0.556 -2.538 -0.972 -15.496 -2.41 -11.52 -1.828 -15.66 -2.4h-0.008Z" stroke-width="2"></path><path id="vector_3" fill="#000000" d="M271.32 339.84c0 1.254 -0.674 8.902 -0.692 9.102 -0.66 7.174 -1.412 6.048 -9.674 5.04 -16.552 -2.02 -74.836 -12.686 -77.13 -14.248 -1.132 -0.772 -1.216 -1.69 0.732 -5.814 5.152 -10.906 5.188 -11.456 7.352 -11.26 20.754 1.866 78.054 13.518 78.098 13.528 1.642 0.368 1.306 0.826 1.314 3.652Zm-79.07 -15.908c-1.304 0.072 -0.668 -0.4 -4.286 7.246 -0.926 1.958 -1.894 3.896 -2.8 5.862 -0.168 0.368 -0.768 0.71 -0.426 1.128 0.474 0.576 82.066 15.226 83.086 14.8 0.354 -0.15 1.716 -14.78 1.682 -14.848 -0.324 -0.644 0.056 -0.418 -77.256 -14.188Z" stroke-width="2"></path><path id="vector_4" fill="#000000" d="M261.836 118.6a2.776 2.776 0 0 1 2.678 3.816 2.776 2.776 0 0 1 -2.598 1.738c-3.966 0.114 -3.566 -5.866 -0.08 -5.554Z" stroke-width="2"></path><path id="vector_5" fill="#000000" d="M252.532 122.86c-2.25 -0.032 -2.512 -3.648 -0.036 -3.556a2.006 2.006 0 0 1 1.7 1.864 1.69 1.69 0 0 1 -0.48 1.192 1.656 1.656 0 0 1 -1.184 0.5Z" stroke-width="2"></path><path id="vector_6" fill="#000000" d="M328.046 230.842c-0.678 -0.05 0 -0.022 -17.306 -2.228 -130.258 -16.618 -102.266 -11.656 -130.896 -14.842 -0.736 -0.08 -0.542 0.088 -1 4.494a34.942 34.942 0 0 0 -0.438 7.478c0.036 2.306 144.134 17.736 147.164 17.918 2.52 0.15 2 0.424 2.636 -1.824 0.03 -0.102 0.8 -6.172 0.762 -8.2 -0.048 -2.89 0.178 -2.716 -0.922 -2.796Zm-140.6 -5.018a0.732 0.732 0 0 1 -0.516 0.292c-6.784 -0.8 -6.944 -0.692 -6.66 -1.376 0.036 -2.896 0.228 -5.79 0.578 -8.666 0.052 -0.6 0.044 -0.444 4.432 -0.052 5.152 0.46 5.2 0.288 5.08 0.952a58.37 58.37 0 0 0 -2.76 8.326c-0.058 0.176 -0.044 0.4 -0.15 0.524h-0.004Zm9.664 1.344c-0.28 0.2 -0.884 0 -1.344 -0.058 -2.04 -0.232 -4.074 -0.466 -6.106 -0.706 -0.888 -0.102 -0.63 0.316 1.432 -7.238 0.616 -2.25 0 -2.524 1.054 -2.492 8.816 1.11 8.4 0.222 7.63 2.2 -3.048 7.876 -2.072 7.858 -2.662 8.294h-0.004Zm10.072 1.358c-1.6 -0.174 -4.93 -0.528 -7.258 -0.818 -0.728 -0.088 -0.214 -0.442 0.62 -3.9 1.496 -6.176 1.154 -6.182 1.77 -6.096 7.216 1 8.582 0.274 8 1.366 -2.004 3.776 -2.528 8.848 -3.128 9.448h-0.004Zm2.472 0.318c-0.922 -0.096 -0.226 -0.292 0.924 -4.756 1.4 -5.48 0.8 -5.516 1.712 -5.414 5.956 0.662 5.6 0.626 7.06 0.8 -0.458 1.344 -2.4 7.2 -2.814 9.442 -0.182 1.026 -0.004 0.666 -6.878 -0.072h-0.004Zm16.166 -1.224c-0.95 2.942 -0.382 3.068 -1.332 2.982 -7.6 -0.684 -6.828 -0.11 -5.968 -3.514 1.926 -7.624 1.674 -7.6 2.298 -7.522l7.082 0.848c0.528 0.062 0.332 -0.266 -2.076 7.206h-0.004Z" stroke-width="2"></path></g><g id="mechanic 1"><path id="vector_7" fill="#000000" d="M206.166 101.63c6.466 0 6.226 0.218 6.568 -0.522 3.4 -7.4 4.09 -6.568 3.322 -7.726a84.724 84.724 0 0 1 -8.8 -15.256c-0.98 -2.338 10.068 -13.634 18.088 -17.216 0.972 -0.434 1.858 0.11 8.412 5.622 6.36 5.346 6.74 6.902 7.832 6.456 6.906 -2.824 7.376 -1.678 7.712 -3.076 0.688 -2.848 3.174 -11.8 4 -14.62 1.47 -5.076 0.87 -5.058 14.456 -4.292a103.68 103.68 0 0 1 11.538 1.768c2 1.6 1.834 2.928 2.324 7.4 0.072 0.648 0.238 8.968 0.24 11.62 0 1.744 0.4 1.346 6.732 4.572a0.66 0.66 0 0 0 0.776 -0.032 106.852 106.852 0 0 1 16.338 -8.662c1.34 -0.568 1.886 -0.156 2.876 0.666a69.826 69.826 0 0 1 14.638 17.892c1.4 2.382 0.16 4.122 -1.774 6.158a252.22 252.22 0 0 1 -10.112 10.104c-0.982 0.92 0.09 0.634 1.618 7.234 0.232 1 0.13 0 8.37 1.836 4.278 0.954 11.6 1.73 10.99 4.722 1.238 10.246 -2.022 22.622 -2.298 24.05 -0.55 2.866 -0.918 2.4 -19.386 3 -1.2 0.04 -0.252 0.8 -4.336 7.2 -0.58 0.91 0.116 0.222 4.434 7.74 4.956 8.626 5.084 8.496 4.126 9.7 -4.766 5.98 -20.446 18.478 -23.558 15.986 -1.504 -1.2 -6.976 -6.454 -8.09 -7.552 -3.632 -3.578 -3.38 -4.4 -4.436 -4.028 -6.118 2.182 -6.478 1.108 -6.83 2.706a83.192 83.192 0 0 1 -5 15.308c-1.052 1.886 -5.56 1.6 -7.698 1.474 -2.844 -0.166 -18.062 -1.66 -19.156 -4.25 -0.726 -1.722 -0.418 -1.328 -0.786 -4.4 -1.2 -10.012 0.178 -12.6 -1.46 -13.468 -5.708 -3.022 -5.456 -3.664 -6.766 -2.978 -17.74 9.308 -14.832 8.78 -19.622 3.844 -3.846 -3.964 -9.54 -10.934 -11.382 -16.14a1.64 1.64 0 0 1 0.378 -1.436c2.346 -3.33 1.458 -2.24 10.786 -12.558 0.4 -0.452 0.148 -0.228 -1.42 -5.938 -0.234 -0.856 -0.314 -0.274 -4.02 -1a129.676 129.676 0 0 1 -11.976 -2.866 2.786 2.786 0 0 1 -2.2 -3c-0.424 -5 -0.296 -10.028 0.378 -15 0.368 -3.1 0.934 -6.172 1.694 -9.2 0.428 -1.268 2.2 -1.6 3.54 -1.646 8.94 -0.24 8.936 -0.4 8.94 -0.196Zm72.572 -45.26c0 -1.114 0 -1.022 -1.272 -1.332a66.5 66.5 0 0 0 -20.94 -1.548c-0.382 0.044 -0.51 0.658 -0.578 0.928 -3.94 15.626 -3.634 14.048 -4.046 15.898 -0.8 3.626 -4.828 2.81 -9.506 5.184 -1.486 0.754 -1.718 0.296 -13.618 -9.518 -2.674 -2.2 -2.694 -2.584 -3.328 -2.158a62.79 62.79 0 0 0 -15.6 13.6c-0.652 0.726 -0.068 0.066 7.348 13.152 3.38 5.964 1.914 1.852 -2.37 12.3 -0.492 1.2 0.024 1.156 -18 1.428 -1.228 0.02 -0.84 0.138 -1.28 3.112a96.606 96.606 0 0 0 -1.32 19.448c0 1.358 -0.036 1.484 0.47 1.588 12.74 2.618 11.856 2.66 15.838 3.554 2.368 0.534 1.354 1.98 3.296 6.968 0.554 1.424 0.064 1.94 -0.878 3.092 -3.024 3.704 -2.85 3.688 -4.052 5.094 -6.642 7.766 -6.726 6.74 -5.724 8.4a67.838 67.838 0 0 0 12.718 15.778c0.638 0.564 0.142 0.27 8.568 -4.4 8.94 -4.956 7.712 -3.034 11.576 -1.086 1.272 0.806 2.626 1.476 4.038 2 1.79 0.476 1.148 1.8 2.108 15.656 0.2 2.746 0.072 2.958 0.75 3.088 6.974 1.338 5.626 1.654 20.612 2.654 1.136 0.074 0.448 0.18 3.506 -8 3.54 -9.484 3.438 -9.42 5.13 -9.74 6.4 -1.216 6.876 -2.906 8.438 -1.376 3.084 3.022 3.39 3.146 7.886 7.264 4.894 4.482 4.37 4.552 5.228 4.052a68.868 68.868 0 0 0 17.86 -13.614c0.922 -0.972 0.922 -1.1 0.652 -1.526 -12.06 -18.948 -8.628 -13.986 -4.366 -24.322 0.6 -1.432 1.61 -1 3.6 -1.154 15.682 -1.292 15.576 0.112 15.944 -1.068a68.016 68.016 0 0 0 2.4 -23.132c-0.128 -1.146 -0.106 -0.476 -3.948 -1.234 -13.894 -2.74 -13.588 -2.924 -14.87 -3.87 -0.8 -0.582 0.028 -1.624 -2.73 -8.19 -0.362 -0.866 -0.3 -1.026 3.066 -4.612 1.768 -1.88 7.186 -7.622 9.484 -9.948 0.744 -0.754 0.648 -0.568 0.15 -1.358a83.5 83.5 0 0 0 -13.978 -17.128c-0.754 -0.678 -0.22 -0.494 -4.822 2.09 -9.06 5.088 -7.938 4.302 -12.136 6.864 -1.238 0.756 -3.228 -0.774 -4.452 -1.362 -5.318 -2.552 -6.022 -2.534 -6.35 -3.686 -0.56 -1.944 -0.502 -15.19 -0.502 -17.83Z" stroke-width="2"></path><path id="vector_8" fill="#000000" d="M288.754 122.34a28.354 28.354 0 0 1 -48.576 19.592 28.364 28.364 0 0 1 4.614 -43.57 28.364 28.364 0 0 1 15.772 -4.678 28.2 28.2 0 0 1 28.19 28.656Zm-26.54 25.434c11.058 -0.056 23.962 -10.694 24.046 -25.67a25.82 25.82 0 0 0 -25.626 -25.998 25.81 25.81 0 0 0 -25.998 25.626c-0.142 14.244 11.39 26.128 27.578 26.042Z" stroke-width="2"></path></g></g></svg>